<?xml version="1.0" encoding="UTF-8" standalone="no"?>
<!DOCTYPE svg PUBLIC "-//W3C//DTD SVG 1.1//EN" "http://www.w3.org/Graphics/SVG/1.1/DTD/svg11.dtd">
<svg width="100%" height="100%" viewBox="0 0 128 128" version="1.1" xmlns="http://www.w3.org/2000/svg" xmlns:xlink="http://www.w3.org/1999/xlink" xml:space="preserve" xmlns:serif="http://www.serif.com/" style="fill-rule:evenodd;clip-rule:evenodd;stroke-linejoin:round;stroke-miterlimit:2;">
    <rect id="Artboard1" x="0" y="0" width="128" height="128" style="fill:none;"/>
    <g id="Artboard11" serif:id="Artboard1">
        <g transform="matrix(1.16718,0,0,1.16718,-7.08359,-12.9288)">
            <path d="M19.793,64.775C19.866,62.079 20.199,59.449 20.768,56.906C22.985,55.771 24.504,53.462 24.504,50.802C24.504,49.792 24.285,48.833 23.892,47.969C26.338,42.938 29.78,38.479 33.96,34.849C34.421,34.984 34.908,35.057 35.413,35.057C38.163,35.057 40.412,32.892 40.547,30.175C46.519,26.763 53.427,24.805 60.788,24.785C61.375,25.832 62.495,26.54 63.779,26.54C64.9,26.54 65.896,26 66.522,25.167C68.817,25.481 71.052,25.985 73.211,26.662C73.511,28.248 74.906,29.448 76.578,29.448C76.859,29.448 77.133,29.415 77.395,29.35C77.602,31.044 79.047,32.357 80.796,32.357C81.737,32.357 82.589,31.978 83.209,31.363C85.238,32.677 87.144,34.164 88.907,35.805C88.902,35.907 88.9,36.009 88.9,36.112C88.9,39.64 91.571,42.549 95,42.925C96.341,44.91 97.514,47.018 98.497,49.228C97.254,50.167 96.45,51.657 96.45,53.333C96.45,53.842 96.524,54.334 96.662,54.798C95.895,55.696 95.431,56.861 95.431,58.133C95.431,60.102 96.541,61.814 98.168,62.677C98.169,64.567 99.704,66.101 101.595,66.101C101.741,66.101 101.885,66.092 102.026,66.074C102.006,71.333 100.996,76.361 99.173,80.98C98.467,80.734 97.708,80.6 96.918,80.6C93.135,80.6 90.064,83.671 90.064,87.454C90.064,89.445 90.914,91.239 92.272,92.491C91.514,93.385 90.719,94.245 89.888,95.071C89.447,94.947 88.981,94.881 88.5,94.881C85.663,94.881 83.36,97.184 83.36,100.021C83.36,100.132 83.363,100.242 83.37,100.352C79.937,102.597 76.148,104.343 72.108,105.487C71.012,104.742 69.689,104.307 68.265,104.307C66.051,104.307 64.081,105.359 62.828,106.99C62.189,107.02 61.547,107.034 60.902,107.034C56.123,107.034 51.534,106.218 47.266,104.716C46.753,102.418 44.7,100.699 42.248,100.699C41.402,100.699 40.603,100.904 39.899,101.267C36.496,99.24 33.41,96.736 30.734,93.847C31.511,93.218 32.008,92.257 32.008,91.181C32.008,89.289 30.473,87.754 28.581,87.754C27.803,87.754 27.084,88.014 26.509,88.452C23.24,83.478 21.021,77.755 20.168,71.597C21.843,71.373 23.136,69.936 23.136,68.201C23.136,66.337 21.645,64.819 19.793,64.775Z" style="fill:rgb(148,163,184);"/>
        </g>
        <g transform="matrix(1.885,0,0,1.885,58.6275,30.4238)">
            <circle cx="9.931" cy="28.18" r="4.244" style="fill:rgb(48,48,48);fill-opacity:0.5;"/>
        </g>
        <g transform="matrix(1.885,0,0,1.885,38.7654,-20.8441)">
            <circle cx="9.931" cy="28.18" r="4.244" style="fill:rgb(48,48,48);fill-opacity:0.5;"/>
        </g>
        <g transform="matrix(1.41375,0,0,1.41375,20.8884,9.65072)">
            <circle cx="9.931" cy="28.18" r="4.244" style="fill:rgb(48,48,48);fill-opacity:0.5;"/>
        </g>
        <g transform="matrix(1.41375,0,0,1.41375,58.4056,5.06716)">
            <circle cx="9.931" cy="28.18" r="4.244" style="fill:rgb(48,48,48);fill-opacity:0.5;"/>
        </g>
        <g transform="matrix(1.41375,0,0,1.41375,35.6576,50.2237)">
            <circle cx="9.931" cy="28.18" r="4.244" style="fill:rgb(48,48,48);fill-opacity:0.5;"/>
        </g>
        <g transform="matrix(0.9425,0,0,0.9425,41.8708,28.7397)">
            <circle cx="9.931" cy="28.18" r="4.244" style="fill:rgb(48,48,48);fill-opacity:0.5;"/>
        </g>
        <g transform="matrix(0.9425,0,0,0.9425,78.3694,37.058)">
            <circle cx="9.931" cy="28.18" r="4.244" style="fill:rgb(48,48,48);fill-opacity:0.5;"/>
        </g>
        <g transform="matrix(0.9425,0,0,0.9425,80.7461,9.55671)">
            <circle cx="9.931" cy="28.18" r="4.244" style="fill:rgb(48,48,48);fill-opacity:0.5;"/>
        </g>
    </g>
</svg>
