<?xml version="1.0" encoding="UTF-8" standalone="no"?>
<!DOCTYPE svg PUBLIC "-//W3C//DTD SVG 1.1//EN" "http://www.w3.org/Graphics/SVG/1.1/DTD/svg11.dtd">
<svg width="100%" height="100%" viewBox="0 0 128 128" version="1.1" xmlns="http://www.w3.org/2000/svg" xmlns:xlink="http://www.w3.org/1999/xlink" xml:space="preserve" xmlns:serif="http://www.serif.com/" style="fill-rule:evenodd;clip-rule:evenodd;stroke-linejoin:round;stroke-miterlimit:2;">
    <rect id="Artboard1" x="0" y="0" width="128" height="128" style="fill:none;"/>
    <g id="Artboard11" serif:id="Artboard1">
        <g transform="matrix(0.879905,0.879905,-0.879905,0.879905,49.3758,-4.40788)">
            <path d="M91.438,20.401L80.074,63.453L37.021,74.818L25.656,9.036L91.438,20.401Z" style="fill:rgb(167,136,250);"/>
        </g>
        <g transform="matrix(0.879905,0.879905,-0.879905,0.879905,49.3758,-4.40788)">
            <path d="M91.438,20.401L80.074,63.453L37.021,74.818L54.068,37.448L91.438,20.401Z" style="fill:rgb(245,158,11);"/>
        </g>
        <g transform="matrix(0.879905,0.879905,-0.879905,0.879905,49.3758,-14.4079)">
            <path d="M91.438,31.766L85.756,69.136L48.386,74.818L19.974,3.353L91.438,31.766Z" style="fill:rgb(148,163,184);"/>
        </g>
        <g transform="matrix(0.879905,0.879905,-0.879905,0.879905,49.3758,-14.4079)">
            <path d="M91.438,31.766L85.756,69.136L48.386,74.818L79.639,63.019L91.438,31.766Z" style="fill:rgb(255,59,59);"/>
        </g>
        <g transform="matrix(0.879905,0.879905,-0.879905,0.879905,49.3758,5.59212)">
            <path d="M80.074,20.401L68.709,52.089L37.021,63.453L25.656,9.036L80.074,20.401Z" style="fill:rgb(229,231,235);"/>
        </g>
        <g transform="matrix(0.779646,0.779646,-0.779646,0.779646,51.0422,14.5261)">
            <path d="M56.9,36.425L30.528,10.053L80.074,20.401L56.9,36.425Z" style="fill:rgb(56,189,248);"/>
        </g>
        <g transform="matrix(0.779646,0.779646,-0.779646,0.779646,51.0422,14.5261)">
            <path d="M53.045,40.28L37.021,63.453L26.674,13.908L53.045,40.28Z" style="fill:rgb(56,189,248);"/>
        </g>
    </g>
</svg>
