<?xml version="1.0" encoding="UTF-8" standalone="no"?>
<!DOCTYPE svg PUBLIC "-//W3C//DTD SVG 1.1//EN" "http://www.w3.org/Graphics/SVG/1.1/DTD/svg11.dtd">
<svg width="100%" height="100%" viewBox="0 0 128 128" version="1.1" xmlns="http://www.w3.org/2000/svg" xmlns:xlink="http://www.w3.org/1999/xlink" xml:space="preserve" xmlns:serif="http://www.serif.com/" style="fill-rule:evenodd;clip-rule:evenodd;stroke-linejoin:round;stroke-miterlimit:2;">
    <rect id="Artboard1" x="0" y="0" width="128" height="128" style="fill:none;"/>
    <g id="Artboard11" serif:id="Artboard1">
        <g transform="matrix(1.22457,0,0,0.679687,-13.4373,20.3846)">
            <rect x="15.873" y="59.756" width="94.727" height="8.828" style="fill:rgb(148,163,184);"/>
        </g>
        <g transform="matrix(1.22457,0,0,0.226562,-13.4373,49.4615)">
            <path d="M20.992,59.756L33.849,59.756C33.842,61.222 33.838,62.694 33.838,64.17C33.838,65.646 33.842,67.117 33.849,68.584L20.992,68.584C20.985,67.12 20.981,65.649 20.981,64.17C20.981,62.691 20.985,61.22 20.992,59.756ZM92.623,59.756L105.48,59.756C105.488,61.22 105.491,62.691 105.491,64.17C105.491,65.649 105.488,67.12 105.48,68.584L92.623,68.584C92.63,67.117 92.634,65.646 92.634,64.17C92.634,62.694 92.63,61.222 92.623,59.756Z" style="fill:rgb(245,158,11);"/>
        </g>
        <g transform="matrix(1.36101,0,0,1.36101,8.31769,-31.769)">
            <circle cx="40.912" cy="70.366" r="23.512" style="fill:rgb(148,163,184);"/>
        </g>
        <g transform="matrix(2.04152,0,0,2.04152,-7.52347,-79.6534)">
            <path d="M44.341,46.899C44.069,46.492 45.492,46.482 45.811,46.854C49.158,50.765 64.424,57.389 64.424,70.366C64.424,83.343 49.158,89.967 45.811,93.878C45.492,94.25 44.069,94.24 44.341,93.833C46.954,89.914 61.485,82.849 61.485,70.366C61.485,57.883 46.954,50.818 44.341,46.899Z" style="fill:rgb(148,163,184);"/>
        </g>
        <g transform="matrix(2.04152,0,0,2.04152,-31.5235,-79.6534)">
            <path d="M37.484,93.833C37.755,94.24 36.333,94.25 36.014,93.878C32.667,89.967 17.401,83.343 17.401,70.366C17.401,57.389 32.667,50.765 36.014,46.854C36.333,46.482 37.755,46.492 37.484,46.899C34.871,50.818 20.34,57.883 20.34,70.366C20.34,82.849 34.871,89.914 37.484,93.833Z" style="fill:rgb(148,163,184);"/>
        </g>
        <g transform="matrix(0.44881,0,0,0.44881,19.6762,39.3143)">
            <circle cx="116.584" cy="112.934" r="4.456" style="fill:rgb(255,59,59);"/>
        </g>
    </g>
</svg>
